<mxfile host="app.diagrams.net" agent="Mozilla/5.0 (Windows NT 10.0; Win64; x64) AppleWebKit/537.36 (KHTML, like Gecko) Chrome/130.0.0.0 Safari/537.36" version="24.8.2">
  <diagram name="PÃ¡gina-1" id="BZqBAEq8w2wMKEcC92kM">
    <mxGraphModel dx="3827" dy="1591" grid="1" gridSize="10" guides="1" tooltips="1" connect="1" arrows="1" fold="1" page="1" pageScale="1" pageWidth="827" pageHeight="1169" math="0" shadow="0">
      <root>
        <mxCell id="0" />
        <mxCell id="1" parent="0" />
        <mxCell id="dzu0w1oi_MooJyhjp6vT-17" style="edgeStyle=orthogonalEdgeStyle;rounded=1;orthogonalLoop=1;jettySize=auto;html=1;exitX=0.5;exitY=1;exitDx=0;exitDy=0;entryX=0.5;entryY=0;entryDx=0;entryDy=0;" parent="1" source="dzu0w1oi_MooJyhjp6vT-1" target="dzu0w1oi_MooJyhjp6vT-5" edge="1">
          <mxGeometry relative="1" as="geometry" />
        </mxCell>
        <mxCell id="dzu0w1oi_MooJyhjp6vT-18" style="edgeStyle=orthogonalEdgeStyle;rounded=1;orthogonalLoop=1;jettySize=auto;html=1;exitX=0.5;exitY=1;exitDx=0;exitDy=0;entryX=0.5;entryY=0;entryDx=0;entryDy=0;" parent="1" source="dzu0w1oi_MooJyhjp6vT-1" target="dzu0w1oi_MooJyhjp6vT-6" edge="1">
          <mxGeometry relative="1" as="geometry" />
        </mxCell>
        <mxCell id="dzu0w1oi_MooJyhjp6vT-19" style="edgeStyle=orthogonalEdgeStyle;rounded=1;orthogonalLoop=1;jettySize=auto;html=1;exitX=0.5;exitY=1;exitDx=0;exitDy=0;entryX=0.5;entryY=0;entryDx=0;entryDy=0;" parent="1" source="dzu0w1oi_MooJyhjp6vT-1" target="dzu0w1oi_MooJyhjp6vT-7" edge="1">
          <mxGeometry relative="1" as="geometry" />
        </mxCell>
        <mxCell id="dzu0w1oi_MooJyhjp6vT-20" style="edgeStyle=orthogonalEdgeStyle;rounded=1;orthogonalLoop=1;jettySize=auto;html=1;exitX=0.5;exitY=1;exitDx=0;exitDy=0;" parent="1" source="dzu0w1oi_MooJyhjp6vT-1" target="dzu0w1oi_MooJyhjp6vT-2" edge="1">
          <mxGeometry relative="1" as="geometry" />
        </mxCell>
        <mxCell id="dzu0w1oi_MooJyhjp6vT-21" style="edgeStyle=orthogonalEdgeStyle;rounded=1;orthogonalLoop=1;jettySize=auto;html=1;exitX=0.5;exitY=1;exitDx=0;exitDy=0;entryX=0.5;entryY=0;entryDx=0;entryDy=0;" parent="1" source="dzu0w1oi_MooJyhjp6vT-1" target="dzu0w1oi_MooJyhjp6vT-4" edge="1">
          <mxGeometry relative="1" as="geometry" />
        </mxCell>
        <mxCell id="dzu0w1oi_MooJyhjp6vT-22" style="edgeStyle=orthogonalEdgeStyle;rounded=1;orthogonalLoop=1;jettySize=auto;html=1;exitX=0.5;exitY=1;exitDx=0;exitDy=0;entryX=0.5;entryY=0;entryDx=0;entryDy=0;" parent="1" source="dzu0w1oi_MooJyhjp6vT-1" target="dzu0w1oi_MooJyhjp6vT-3" edge="1">
          <mxGeometry relative="1" as="geometry" />
        </mxCell>
        <mxCell id="dzu0w1oi_MooJyhjp6vT-1" value="Microprocessor supercomputer" style="rounded=1;whiteSpace=wrap;html=1;" parent="1" vertex="1">
          <mxGeometry x="-66" y="60" width="120" height="60" as="geometry" />
        </mxCell>
        <mxCell id="dzu0w1oi_MooJyhjp6vT-27" style="edgeStyle=orthogonalEdgeStyle;rounded=1;orthogonalLoop=1;jettySize=auto;html=1;exitX=0.5;exitY=1;exitDx=0;exitDy=0;entryX=1;entryY=0.5;entryDx=0;entryDy=0;" parent="1" source="dzu0w1oi_MooJyhjp6vT-2" target="dzu0w1oi_MooJyhjp6vT-23" edge="1">
          <mxGeometry relative="1" as="geometry" />
        </mxCell>
        <mxCell id="dzu0w1oi_MooJyhjp6vT-28" style="edgeStyle=orthogonalEdgeStyle;rounded=1;orthogonalLoop=1;jettySize=auto;html=1;exitX=0.5;exitY=1;exitDx=0;exitDy=0;entryX=1;entryY=0.5;entryDx=0;entryDy=0;" parent="1" source="dzu0w1oi_MooJyhjp6vT-2" target="dzu0w1oi_MooJyhjp6vT-24" edge="1">
          <mxGeometry relative="1" as="geometry" />
        </mxCell>
        <mxCell id="dzu0w1oi_MooJyhjp6vT-29" style="edgeStyle=orthogonalEdgeStyle;rounded=1;orthogonalLoop=1;jettySize=auto;html=1;exitX=0.5;exitY=1;exitDx=0;exitDy=0;entryX=1;entryY=0.5;entryDx=0;entryDy=0;" parent="1" source="dzu0w1oi_MooJyhjp6vT-2" target="dzu0w1oi_MooJyhjp6vT-25" edge="1">
          <mxGeometry relative="1" as="geometry" />
        </mxCell>
        <mxCell id="dzu0w1oi_MooJyhjp6vT-2" value="1x Plastic Printed Circuit Board" style="rounded=1;whiteSpace=wrap;html=1;" parent="1" vertex="1">
          <mxGeometry x="-416" y="160" width="120" height="60" as="geometry" />
        </mxCell>
        <mxCell id="dzu0w1oi_MooJyhjp6vT-65" style="edgeStyle=orthogonalEdgeStyle;rounded=1;orthogonalLoop=1;jettySize=auto;html=1;exitX=1;exitY=0.5;exitDx=0;exitDy=0;entryX=0;entryY=0.5;entryDx=0;entryDy=0;" parent="1" source="dzu0w1oi_MooJyhjp6vT-3" target="dzu0w1oi_MooJyhjp6vT-64" edge="1">
          <mxGeometry relative="1" as="geometry" />
        </mxCell>
        <mxCell id="dzu0w1oi_MooJyhjp6vT-3" value="2x Microprocessor Assembly" style="rounded=1;whiteSpace=wrap;html=1;" parent="1" vertex="1">
          <mxGeometry x="284" y="160" width="120" height="60" as="geometry" />
        </mxCell>
        <mxCell id="dzu0w1oi_MooJyhjp6vT-60" style="edgeStyle=orthogonalEdgeStyle;rounded=1;orthogonalLoop=1;jettySize=auto;html=1;exitX=0.5;exitY=1;exitDx=0;exitDy=0;entryX=0;entryY=0.5;entryDx=0;entryDy=0;" parent="1" source="dzu0w1oi_MooJyhjp6vT-4" target="dzu0w1oi_MooJyhjp6vT-57" edge="1">
          <mxGeometry relative="1" as="geometry" />
        </mxCell>
        <mxCell id="dzu0w1oi_MooJyhjp6vT-61" style="edgeStyle=orthogonalEdgeStyle;rounded=1;orthogonalLoop=1;jettySize=auto;html=1;exitX=0.5;exitY=1;exitDx=0;exitDy=0;entryX=0;entryY=0.5;entryDx=0;entryDy=0;" parent="1" source="dzu0w1oi_MooJyhjp6vT-4" target="dzu0w1oi_MooJyhjp6vT-58" edge="1">
          <mxGeometry relative="1" as="geometry" />
        </mxCell>
        <mxCell id="dzu0w1oi_MooJyhjp6vT-62" style="edgeStyle=orthogonalEdgeStyle;rounded=1;orthogonalLoop=1;jettySize=auto;html=1;exitX=0.5;exitY=1;exitDx=0;exitDy=0;entryX=0;entryY=0.5;entryDx=0;entryDy=0;" parent="1" source="dzu0w1oi_MooJyhjp6vT-4" target="dzu0w1oi_MooJyhjp6vT-59" edge="1">
          <mxGeometry relative="1" as="geometry" />
        </mxCell>
        <mxCell id="dzu0w1oi_MooJyhjp6vT-4" value="4x Diode" style="rounded=1;whiteSpace=wrap;html=1;" parent="1" vertex="1">
          <mxGeometry x="144" y="160" width="120" height="60" as="geometry" />
        </mxCell>
        <mxCell id="dzu0w1oi_MooJyhjp6vT-53" style="edgeStyle=orthogonalEdgeStyle;rounded=1;orthogonalLoop=1;jettySize=auto;html=1;exitX=0.5;exitY=1;exitDx=0;exitDy=0;entryX=0.5;entryY=0;entryDx=0;entryDy=0;" parent="1" source="dzu0w1oi_MooJyhjp6vT-5" target="dzu0w1oi_MooJyhjp6vT-52" edge="1">
          <mxGeometry relative="1" as="geometry" />
        </mxCell>
        <mxCell id="dzu0w1oi_MooJyhjp6vT-5" value="4x RAM Chip" style="rounded=1;whiteSpace=wrap;html=1;" parent="1" vertex="1">
          <mxGeometry x="4" y="160" width="120" height="60" as="geometry" />
        </mxCell>
        <mxCell id="dzu0w1oi_MooJyhjp6vT-89" style="edgeStyle=orthogonalEdgeStyle;rounded=1;orthogonalLoop=1;jettySize=auto;html=1;exitX=0.5;exitY=1;exitDx=0;exitDy=0;entryX=0.5;entryY=0;entryDx=0;entryDy=0;" parent="1" source="dzu0w1oi_MooJyhjp6vT-6" target="dzu0w1oi_MooJyhjp6vT-44" edge="1">
          <mxGeometry relative="1" as="geometry" />
        </mxCell>
        <mxCell id="dzu0w1oi_MooJyhjp6vT-6" value="16x Fine Electrum Wire" style="rounded=1;whiteSpace=wrap;html=1;" parent="1" vertex="1">
          <mxGeometry x="-136" y="160" width="120" height="60" as="geometry" />
        </mxCell>
        <mxCell id="dzu0w1oi_MooJyhjp6vT-37" style="edgeStyle=orthogonalEdgeStyle;rounded=1;orthogonalLoop=1;jettySize=auto;html=1;exitX=0.5;exitY=1;exitDx=0;exitDy=0;entryX=0.5;entryY=0;entryDx=0;entryDy=0;" parent="1" source="dzu0w1oi_MooJyhjp6vT-7" target="dzu0w1oi_MooJyhjp6vT-36" edge="1">
          <mxGeometry relative="1" as="geometry" />
        </mxCell>
        <mxCell id="dzu0w1oi_MooJyhjp6vT-7" value="16x Blue Alloy Bolt" style="rounded=1;whiteSpace=wrap;html=1;" parent="1" vertex="1">
          <mxGeometry x="-276" y="160" width="120" height="60" as="geometry" />
        </mxCell>
        <mxCell id="dzu0w1oi_MooJyhjp6vT-33" style="edgeStyle=orthogonalEdgeStyle;rounded=1;orthogonalLoop=1;jettySize=auto;html=1;exitX=0.5;exitY=0;exitDx=0;exitDy=0;entryX=1;entryY=0.5;entryDx=0;entryDy=0;" parent="1" source="dzu0w1oi_MooJyhjp6vT-23" target="dzu0w1oi_MooJyhjp6vT-30" edge="1">
          <mxGeometry relative="1" as="geometry" />
        </mxCell>
        <mxCell id="dzu0w1oi_MooJyhjp6vT-34" style="edgeStyle=orthogonalEdgeStyle;rounded=1;orthogonalLoop=1;jettySize=auto;html=1;exitX=0.5;exitY=0;exitDx=0;exitDy=0;entryX=1;entryY=0.5;entryDx=0;entryDy=0;" parent="1" source="dzu0w1oi_MooJyhjp6vT-23" target="dzu0w1oi_MooJyhjp6vT-31" edge="1">
          <mxGeometry relative="1" as="geometry" />
        </mxCell>
        <mxCell id="dzu0w1oi_MooJyhjp6vT-35" style="edgeStyle=orthogonalEdgeStyle;rounded=1;orthogonalLoop=1;jettySize=auto;html=1;exitX=0.5;exitY=0;exitDx=0;exitDy=0;entryX=1;entryY=0.5;entryDx=0;entryDy=0;" parent="1" source="dzu0w1oi_MooJyhjp6vT-23" target="dzu0w1oi_MooJyhjp6vT-32" edge="1">
          <mxGeometry relative="1" as="geometry" />
        </mxCell>
        <mxCell id="dzu0w1oi_MooJyhjp6vT-23" value="1x Plastic Circuit Board" style="rounded=1;whiteSpace=wrap;html=1;" parent="1" vertex="1">
          <mxGeometry x="-536" y="250" width="120" height="60" as="geometry" />
        </mxCell>
        <mxCell id="dzu0w1oi_MooJyhjp6vT-24" value="6x Copper Foil" style="rounded=1;whiteSpace=wrap;html=1;" parent="1" vertex="1">
          <mxGeometry x="-536" y="330" width="120" height="60" as="geometry" />
        </mxCell>
        <mxCell id="dzu0w1oi_MooJyhjp6vT-25" value="250mb Iron III Chloride" style="rounded=1;whiteSpace=wrap;html=1;" parent="1" vertex="1">
          <mxGeometry x="-536" y="410" width="120" height="60" as="geometry" />
        </mxCell>
        <mxCell id="dzu0w1oi_MooJyhjp6vT-30" value="250mb Sulfuric Acid" style="rounded=1;whiteSpace=wrap;html=1;" parent="1" vertex="1">
          <mxGeometry x="-700" y="360" width="120" height="60" as="geometry" />
        </mxCell>
        <mxCell id="dzu0w1oi_MooJyhjp6vT-31" value="4x Copper Foil" style="rounded=1;whiteSpace=wrap;html=1;" parent="1" vertex="1">
          <mxGeometry x="-700" y="280" width="120" height="60" as="geometry" />
        </mxCell>
        <mxCell id="dzu0w1oi_MooJyhjp6vT-32" value="1x Polyvinyl Chloride Plate" style="rounded=1;whiteSpace=wrap;html=1;" parent="1" vertex="1">
          <mxGeometry x="-700" y="200" width="120" height="60" as="geometry" />
        </mxCell>
        <mxCell id="dzu0w1oi_MooJyhjp6vT-42" style="edgeStyle=orthogonalEdgeStyle;rounded=1;orthogonalLoop=1;jettySize=auto;html=1;exitX=0.5;exitY=1;exitDx=0;exitDy=0;entryX=1;entryY=0.5;entryDx=0;entryDy=0;" parent="1" source="dzu0w1oi_MooJyhjp6vT-36" target="dzu0w1oi_MooJyhjp6vT-38" edge="1">
          <mxGeometry relative="1" as="geometry">
            <Array as="points">
              <mxPoint x="-216" y="390" />
            </Array>
          </mxGeometry>
        </mxCell>
        <mxCell id="dzu0w1oi_MooJyhjp6vT-50" style="edgeStyle=orthogonalEdgeStyle;rounded=1;orthogonalLoop=1;jettySize=auto;html=1;exitX=0.5;exitY=1;exitDx=0;exitDy=0;entryX=0;entryY=0.5;entryDx=0;entryDy=0;" parent="1" source="dzu0w1oi_MooJyhjp6vT-36" target="dzu0w1oi_MooJyhjp6vT-39" edge="1">
          <mxGeometry relative="1" as="geometry">
            <Array as="points">
              <mxPoint x="-216" y="390" />
            </Array>
          </mxGeometry>
        </mxCell>
        <mxCell id="dzu0w1oi_MooJyhjp6vT-36" value="1x Blue Alloy Ingot" style="rounded=1;whiteSpace=wrap;html=1;" parent="1" vertex="1">
          <mxGeometry x="-276" y="250" width="120" height="60" as="geometry" />
        </mxCell>
        <mxCell id="dzu0w1oi_MooJyhjp6vT-38" value="1x Silver" style="rounded=1;whiteSpace=wrap;html=1;" parent="1" vertex="1">
          <mxGeometry x="-350" y="360" width="120" height="60" as="geometry" />
        </mxCell>
        <mxCell id="dzu0w1oi_MooJyhjp6vT-39" value="4x Electrotine" style="rounded=1;whiteSpace=wrap;html=1;" parent="1" vertex="1">
          <mxGeometry x="-202" y="360" width="120" height="60" as="geometry" />
        </mxCell>
        <mxCell id="dzu0w1oi_MooJyhjp6vT-47" style="edgeStyle=orthogonalEdgeStyle;rounded=1;orthogonalLoop=1;jettySize=auto;html=1;exitX=0.5;exitY=1;exitDx=0;exitDy=0;entryX=0;entryY=0.5;entryDx=0;entryDy=0;" parent="1" source="dzu0w1oi_MooJyhjp6vT-44" target="dzu0w1oi_MooJyhjp6vT-45" edge="1">
          <mxGeometry relative="1" as="geometry">
            <Array as="points">
              <mxPoint x="-76" y="500" />
            </Array>
          </mxGeometry>
        </mxCell>
        <mxCell id="dzu0w1oi_MooJyhjp6vT-49" style="edgeStyle=orthogonalEdgeStyle;rounded=1;orthogonalLoop=1;jettySize=auto;html=1;exitX=0.5;exitY=1;exitDx=0;exitDy=0;entryX=1;entryY=0.5;entryDx=0;entryDy=0;" parent="1" source="dzu0w1oi_MooJyhjp6vT-44" target="dzu0w1oi_MooJyhjp6vT-46" edge="1">
          <mxGeometry relative="1" as="geometry">
            <Array as="points">
              <mxPoint x="-76" y="500" />
            </Array>
          </mxGeometry>
        </mxCell>
        <mxCell id="dzu0w1oi_MooJyhjp6vT-44" value="1x Electrum Ingot" style="rounded=1;whiteSpace=wrap;html=1;" parent="1" vertex="1">
          <mxGeometry x="-136" y="250" width="120" height="60" as="geometry" />
        </mxCell>
        <mxCell id="dzu0w1oi_MooJyhjp6vT-45" value="1x Silver" style="rounded=1;whiteSpace=wrap;html=1;" parent="1" vertex="1">
          <mxGeometry x="-62" y="470" width="120" height="60" as="geometry" />
        </mxCell>
        <mxCell id="dzu0w1oi_MooJyhjp6vT-46" value="1x Gold" style="rounded=1;whiteSpace=wrap;html=1;" parent="1" vertex="1">
          <mxGeometry x="-210" y="470" width="120" height="60" as="geometry" />
        </mxCell>
        <mxCell id="dzu0w1oi_MooJyhjp6vT-55" style="edgeStyle=orthogonalEdgeStyle;rounded=1;orthogonalLoop=1;jettySize=auto;html=1;exitX=0.5;exitY=1;exitDx=0;exitDy=0;entryX=0.5;entryY=0;entryDx=0;entryDy=0;" parent="1" source="dzu0w1oi_MooJyhjp6vT-52" target="dzu0w1oi_MooJyhjp6vT-54" edge="1">
          <mxGeometry relative="1" as="geometry" />
        </mxCell>
        <mxCell id="dzu0w1oi_MooJyhjp6vT-52" value="1x RAM waffer" style="rounded=1;whiteSpace=wrap;html=1;" parent="1" vertex="1">
          <mxGeometry x="4" y="250" width="120" height="60" as="geometry" />
        </mxCell>
        <mxCell id="dzu0w1oi_MooJyhjp6vT-54" value="1x Silicon Waffer" style="rounded=1;whiteSpace=wrap;html=1;" parent="1" vertex="1">
          <mxGeometry x="4" y="350" width="120" height="60" as="geometry" />
        </mxCell>
        <mxCell id="dzu0w1oi_MooJyhjp6vT-57" value="1x Gallium Arsenide Dust" style="rounded=1;whiteSpace=wrap;html=1;" parent="1" vertex="1">
          <mxGeometry x="230" y="250" width="120" height="60" as="geometry" />
        </mxCell>
        <mxCell id="dzu0w1oi_MooJyhjp6vT-58" value="8x Fine Platinum Wire" style="rounded=1;whiteSpace=wrap;html=1;" parent="1" vertex="1">
          <mxGeometry x="230" y="330" width="120" height="60" as="geometry" />
        </mxCell>
        <mxCell id="dzu0w1oi_MooJyhjp6vT-59" value="288mb Polyethylene" style="rounded=1;whiteSpace=wrap;html=1;" parent="1" vertex="1">
          <mxGeometry x="230" y="410" width="120" height="60" as="geometry" />
        </mxCell>
        <mxCell id="dzu0w1oi_MooJyhjp6vT-74" style="edgeStyle=orthogonalEdgeStyle;rounded=1;orthogonalLoop=1;jettySize=auto;html=1;exitX=0.5;exitY=1;exitDx=0;exitDy=0;entryX=0.5;entryY=0;entryDx=0;entryDy=0;" parent="1" source="dzu0w1oi_MooJyhjp6vT-64" target="dzu0w1oi_MooJyhjp6vT-66" edge="1">
          <mxGeometry relative="1" as="geometry" />
        </mxCell>
        <mxCell id="dzu0w1oi_MooJyhjp6vT-75" style="edgeStyle=orthogonalEdgeStyle;rounded=1;orthogonalLoop=1;jettySize=auto;html=1;exitX=0.5;exitY=1;exitDx=0;exitDy=0;entryX=0.5;entryY=0;entryDx=0;entryDy=0;" parent="1" source="dzu0w1oi_MooJyhjp6vT-64" target="dzu0w1oi_MooJyhjp6vT-73" edge="1">
          <mxGeometry relative="1" as="geometry" />
        </mxCell>
        <mxCell id="dzu0w1oi_MooJyhjp6vT-76" style="edgeStyle=orthogonalEdgeStyle;rounded=1;orthogonalLoop=1;jettySize=auto;html=1;exitX=0.5;exitY=1;exitDx=0;exitDy=0;entryX=0.5;entryY=0;entryDx=0;entryDy=0;" parent="1" source="dzu0w1oi_MooJyhjp6vT-64" target="dzu0w1oi_MooJyhjp6vT-67" edge="1">
          <mxGeometry relative="1" as="geometry" />
        </mxCell>
        <mxCell id="dzu0w1oi_MooJyhjp6vT-77" style="edgeStyle=orthogonalEdgeStyle;rounded=1;orthogonalLoop=1;jettySize=auto;html=1;exitX=0.5;exitY=1;exitDx=0;exitDy=0;entryX=0.5;entryY=0;entryDx=0;entryDy=0;" parent="1" source="dzu0w1oi_MooJyhjp6vT-64" target="dzu0w1oi_MooJyhjp6vT-72" edge="1">
          <mxGeometry relative="1" as="geometry" />
        </mxCell>
        <mxCell id="dzu0w1oi_MooJyhjp6vT-78" style="edgeStyle=orthogonalEdgeStyle;rounded=1;orthogonalLoop=1;jettySize=auto;html=1;exitX=0.5;exitY=1;exitDx=0;exitDy=0;entryX=0.5;entryY=0;entryDx=0;entryDy=0;" parent="1" source="dzu0w1oi_MooJyhjp6vT-64" target="dzu0w1oi_MooJyhjp6vT-68" edge="1">
          <mxGeometry relative="1" as="geometry" />
        </mxCell>
        <mxCell id="dzu0w1oi_MooJyhjp6vT-79" style="edgeStyle=orthogonalEdgeStyle;rounded=1;orthogonalLoop=1;jettySize=auto;html=1;exitX=0.5;exitY=1;exitDx=0;exitDy=0;entryX=0.5;entryY=0;entryDx=0;entryDy=0;" parent="1" source="dzu0w1oi_MooJyhjp6vT-64" target="dzu0w1oi_MooJyhjp6vT-69" edge="1">
          <mxGeometry relative="1" as="geometry" />
        </mxCell>
        <mxCell id="dzu0w1oi_MooJyhjp6vT-80" style="edgeStyle=orthogonalEdgeStyle;rounded=1;orthogonalLoop=1;jettySize=auto;html=1;exitX=0.5;exitY=1;exitDx=0;exitDy=0;entryX=0.5;entryY=0;entryDx=0;entryDy=0;" parent="1" source="dzu0w1oi_MooJyhjp6vT-64" target="dzu0w1oi_MooJyhjp6vT-70" edge="1">
          <mxGeometry relative="1" as="geometry" />
        </mxCell>
        <mxCell id="dzu0w1oi_MooJyhjp6vT-64" value="Microprocessor Assembly" style="rounded=1;whiteSpace=wrap;html=1;" parent="1" vertex="1">
          <mxGeometry x="881" y="160" width="120" height="60" as="geometry" />
        </mxCell>
        <mxCell id="dzu0w1oi_MooJyhjp6vT-86" style="edgeStyle=orthogonalEdgeStyle;rounded=1;orthogonalLoop=1;jettySize=auto;html=1;exitX=0.5;exitY=1;exitDx=0;exitDy=0;entryX=0;entryY=0.5;entryDx=0;entryDy=0;" parent="1" source="dzu0w1oi_MooJyhjp6vT-66" target="dzu0w1oi_MooJyhjp6vT-83" edge="1">
          <mxGeometry relative="1" as="geometry" />
        </mxCell>
        <mxCell id="dzu0w1oi_MooJyhjp6vT-87" style="edgeStyle=orthogonalEdgeStyle;rounded=1;orthogonalLoop=1;jettySize=auto;html=1;exitX=0.5;exitY=1;exitDx=0;exitDy=0;entryX=0;entryY=0.5;entryDx=0;entryDy=0;" parent="1" source="dzu0w1oi_MooJyhjp6vT-66" target="dzu0w1oi_MooJyhjp6vT-84" edge="1">
          <mxGeometry relative="1" as="geometry" />
        </mxCell>
        <mxCell id="dzu0w1oi_MooJyhjp6vT-88" style="edgeStyle=orthogonalEdgeStyle;rounded=1;orthogonalLoop=1;jettySize=auto;html=1;exitX=0.5;exitY=1;exitDx=0;exitDy=0;entryX=0;entryY=0.5;entryDx=0;entryDy=0;" parent="1" source="dzu0w1oi_MooJyhjp6vT-66" target="dzu0w1oi_MooJyhjp6vT-85" edge="1">
          <mxGeometry relative="1" as="geometry" />
        </mxCell>
        <mxCell id="dzu0w1oi_MooJyhjp6vT-66" value="8x Capacitor" style="rounded=1;whiteSpace=wrap;html=1;" parent="1" vertex="1">
          <mxGeometry x="460" y="270" width="120" height="60" as="geometry" />
        </mxCell>
        <mxCell id="dzu0w1oi_MooJyhjp6vT-67" value="4x RAM Chip&lt;div&gt;*&lt;/div&gt;" style="rounded=1;whiteSpace=wrap;html=1;" parent="1" vertex="1">
          <mxGeometry x="600" y="270" width="120" height="60" as="geometry" />
        </mxCell>
        <mxCell id="dzu0w1oi_MooJyhjp6vT-68" value="1x Plastic Printed Circuit Board&lt;div&gt;*&lt;/div&gt;" style="rounded=1;whiteSpace=wrap;html=1;" parent="1" vertex="1">
          <mxGeometry x="740" y="270" width="120" height="60" as="geometry" />
        </mxCell>
        <mxCell id="dzu0w1oi_MooJyhjp6vT-91" style="edgeStyle=orthogonalEdgeStyle;rounded=1;orthogonalLoop=1;jettySize=auto;html=1;exitX=0.5;exitY=1;exitDx=0;exitDy=0;entryX=1;entryY=0.5;entryDx=0;entryDy=0;" parent="1" source="dzu0w1oi_MooJyhjp6vT-69" target="dzu0w1oi_MooJyhjp6vT-90" edge="1">
          <mxGeometry relative="1" as="geometry" />
        </mxCell>
        <mxCell id="dzu0w1oi_MooJyhjp6vT-93" style="edgeStyle=orthogonalEdgeStyle;rounded=1;orthogonalLoop=1;jettySize=auto;html=1;exitX=0.5;exitY=1;exitDx=0;exitDy=0;entryX=1;entryY=0.5;entryDx=0;entryDy=0;" parent="1" source="dzu0w1oi_MooJyhjp6vT-69" target="dzu0w1oi_MooJyhjp6vT-92" edge="1">
          <mxGeometry relative="1" as="geometry" />
        </mxCell>
        <mxCell id="dzu0w1oi_MooJyhjp6vT-95" style="edgeStyle=orthogonalEdgeStyle;rounded=1;orthogonalLoop=1;jettySize=auto;html=1;exitX=0.5;exitY=1;exitDx=0;exitDy=0;entryX=1;entryY=0.5;entryDx=0;entryDy=0;" parent="1" source="dzu0w1oi_MooJyhjp6vT-69" target="dzu0w1oi_MooJyhjp6vT-94" edge="1">
          <mxGeometry relative="1" as="geometry" />
        </mxCell>
        <mxCell id="dzu0w1oi_MooJyhjp6vT-69" value="4x Inductor" style="rounded=1;whiteSpace=wrap;html=1;" parent="1" vertex="1">
          <mxGeometry x="881" y="270" width="120" height="60" as="geometry" />
        </mxCell>
        <mxCell id="dzu0w1oi_MooJyhjp6vT-82" style="edgeStyle=orthogonalEdgeStyle;rounded=1;orthogonalLoop=1;jettySize=auto;html=1;exitX=0.5;exitY=1;exitDx=0;exitDy=0;entryX=0.5;entryY=0;entryDx=0;entryDy=0;" parent="1" source="dzu0w1oi_MooJyhjp6vT-70" target="dzu0w1oi_MooJyhjp6vT-81" edge="1">
          <mxGeometry relative="1" as="geometry" />
        </mxCell>
        <mxCell id="dzu0w1oi_MooJyhjp6vT-70" value="8x Fine Red Alloy Wire" style="rounded=1;whiteSpace=wrap;html=1;" parent="1" vertex="1">
          <mxGeometry x="1020" y="270" width="120" height="60" as="geometry" />
        </mxCell>
        <mxCell id="2Vj1_aHm4KSjHywwhcnb-6" style="edgeStyle=orthogonalEdgeStyle;rounded=1;orthogonalLoop=1;jettySize=auto;html=1;exitX=0.5;exitY=1;exitDx=0;exitDy=0;entryX=0.5;entryY=0;entryDx=0;entryDy=0;" edge="1" parent="1" source="dzu0w1oi_MooJyhjp6vT-72" target="dzu0w1oi_MooJyhjp6vT-112">
          <mxGeometry relative="1" as="geometry">
            <Array as="points">
              <mxPoint x="1220" y="390" />
              <mxPoint x="1330" y="390" />
            </Array>
          </mxGeometry>
        </mxCell>
        <mxCell id="dzu0w1oi_MooJyhjp6vT-72" value="144mb Soldering Alloy" style="rounded=1;whiteSpace=wrap;html=1;" parent="1" vertex="1">
          <mxGeometry x="1160" y="270" width="120" height="60" as="geometry" />
        </mxCell>
        <mxCell id="dzu0w1oi_MooJyhjp6vT-121" style="edgeStyle=orthogonalEdgeStyle;rounded=1;orthogonalLoop=1;jettySize=auto;html=1;exitX=1;exitY=0.5;exitDx=0;exitDy=0;entryX=0;entryY=0.5;entryDx=0;entryDy=0;" parent="1" source="dzu0w1oi_MooJyhjp6vT-73" target="dzu0w1oi_MooJyhjp6vT-120" edge="1">
          <mxGeometry relative="1" as="geometry" />
        </mxCell>
        <mxCell id="dzu0w1oi_MooJyhjp6vT-73" value="2x Microprocessor" style="rounded=1;whiteSpace=wrap;html=1;" parent="1" vertex="1">
          <mxGeometry x="1300" y="270" width="120" height="60" as="geometry" />
        </mxCell>
        <mxCell id="2Vj1_aHm4KSjHywwhcnb-1" style="edgeStyle=orthogonalEdgeStyle;rounded=1;orthogonalLoop=1;jettySize=auto;html=1;exitX=0.5;exitY=1;exitDx=0;exitDy=0;entryX=0;entryY=0.5;entryDx=0;entryDy=0;" edge="1" parent="1" source="dzu0w1oi_MooJyhjp6vT-81" target="dzu0w1oi_MooJyhjp6vT-97">
          <mxGeometry relative="1" as="geometry" />
        </mxCell>
        <mxCell id="2Vj1_aHm4KSjHywwhcnb-2" style="edgeStyle=orthogonalEdgeStyle;rounded=1;orthogonalLoop=1;jettySize=auto;html=1;exitX=0.5;exitY=1;exitDx=0;exitDy=0;entryX=0;entryY=0.5;entryDx=0;entryDy=0;" edge="1" parent="1" source="dzu0w1oi_MooJyhjp6vT-81" target="dzu0w1oi_MooJyhjp6vT-96">
          <mxGeometry relative="1" as="geometry" />
        </mxCell>
        <mxCell id="dzu0w1oi_MooJyhjp6vT-81" value="1x Red Alloy Ingot" style="rounded=1;whiteSpace=wrap;html=1;" parent="1" vertex="1">
          <mxGeometry x="1020" y="360" width="120" height="60" as="geometry" />
        </mxCell>
        <mxCell id="dzu0w1oi_MooJyhjp6vT-83" value="2x Polyvinyl chloride sheet" style="rounded=1;whiteSpace=wrap;html=1;" parent="1" vertex="1">
          <mxGeometry x="550" y="360" width="120" height="60" as="geometry" />
        </mxCell>
        <mxCell id="dzu0w1oi_MooJyhjp6vT-84" value="1x Tantalum Foil" style="rounded=1;whiteSpace=wrap;html=1;" parent="1" vertex="1">
          <mxGeometry x="550" y="440" width="120" height="60" as="geometry" />
        </mxCell>
        <mxCell id="dzu0w1oi_MooJyhjp6vT-85" value="72mb Polyethylene&amp;nbsp;" style="rounded=1;whiteSpace=wrap;html=1;" parent="1" vertex="1">
          <mxGeometry x="550" y="520" width="120" height="60" as="geometry" />
        </mxCell>
        <mxCell id="dzu0w1oi_MooJyhjp6vT-90" value="4x Fine Tantalum Wire" style="rounded=1;whiteSpace=wrap;html=1;" parent="1" vertex="1">
          <mxGeometry x="800" y="440" width="120" height="60" as="geometry" />
        </mxCell>
        <mxCell id="dzu0w1oi_MooJyhjp6vT-101" style="edgeStyle=orthogonalEdgeStyle;rounded=1;orthogonalLoop=1;jettySize=auto;html=1;exitX=0.5;exitY=1;exitDx=0;exitDy=0;entryX=1;entryY=0.5;entryDx=0;entryDy=0;" parent="1" source="dzu0w1oi_MooJyhjp6vT-92" target="dzu0w1oi_MooJyhjp6vT-100" edge="1">
          <mxGeometry relative="1" as="geometry" />
        </mxCell>
        <mxCell id="dzu0w1oi_MooJyhjp6vT-92" value="1x Nickel Zinc Ferrite Ring" style="rounded=1;whiteSpace=wrap;html=1;" parent="1" vertex="1">
          <mxGeometry x="800" y="520" width="120" height="60" as="geometry" />
        </mxCell>
        <mxCell id="dzu0w1oi_MooJyhjp6vT-94" value="72mb Polyethylene&amp;nbsp;" style="rounded=1;whiteSpace=wrap;html=1;" parent="1" vertex="1">
          <mxGeometry x="800" y="360" width="120" height="60" as="geometry" />
        </mxCell>
        <mxCell id="dzu0w1oi_MooJyhjp6vT-96" value="1x Copper" style="rounded=1;whiteSpace=wrap;html=1;" parent="1" vertex="1">
          <mxGeometry x="1110" y="500" width="120" height="60" as="geometry" />
        </mxCell>
        <mxCell id="dzu0w1oi_MooJyhjp6vT-97" value="4x Redstone" style="rounded=1;whiteSpace=wrap;html=1;" parent="1" vertex="1">
          <mxGeometry x="1110" y="430" width="120" height="60" as="geometry" />
        </mxCell>
        <mxCell id="dzu0w1oi_MooJyhjp6vT-103" style="edgeStyle=orthogonalEdgeStyle;rounded=1;orthogonalLoop=1;jettySize=auto;html=1;exitX=0.5;exitY=1;exitDx=0;exitDy=0;entryX=0.5;entryY=0;entryDx=0;entryDy=0;" parent="1" source="dzu0w1oi_MooJyhjp6vT-100" target="dzu0w1oi_MooJyhjp6vT-102" edge="1">
          <mxGeometry relative="1" as="geometry" />
        </mxCell>
        <mxCell id="dzu0w1oi_MooJyhjp6vT-100" value="1x Nickel Zinc Ferrite Ingot" style="rounded=1;whiteSpace=wrap;html=1;" parent="1" vertex="1">
          <mxGeometry x="700" y="600" width="120" height="60" as="geometry" />
        </mxCell>
        <mxCell id="dzu0w1oi_MooJyhjp6vT-107" style="edgeStyle=orthogonalEdgeStyle;rounded=1;orthogonalLoop=1;jettySize=auto;html=1;exitX=0.5;exitY=1;exitDx=0;exitDy=0;entryX=1;entryY=0.5;entryDx=0;entryDy=0;" parent="1" source="dzu0w1oi_MooJyhjp6vT-102" target="dzu0w1oi_MooJyhjp6vT-104" edge="1">
          <mxGeometry relative="1" as="geometry" />
        </mxCell>
        <mxCell id="dzu0w1oi_MooJyhjp6vT-108" style="edgeStyle=orthogonalEdgeStyle;rounded=1;orthogonalLoop=1;jettySize=auto;html=1;exitX=0.5;exitY=1;exitDx=0;exitDy=0;entryX=1;entryY=0.5;entryDx=0;entryDy=0;" parent="1" source="dzu0w1oi_MooJyhjp6vT-102" target="dzu0w1oi_MooJyhjp6vT-105" edge="1">
          <mxGeometry relative="1" as="geometry" />
        </mxCell>
        <mxCell id="dzu0w1oi_MooJyhjp6vT-109" style="edgeStyle=orthogonalEdgeStyle;rounded=1;orthogonalLoop=1;jettySize=auto;html=1;exitX=0.5;exitY=1;exitDx=0;exitDy=0;entryX=1;entryY=0.5;entryDx=0;entryDy=0;" parent="1" source="dzu0w1oi_MooJyhjp6vT-102" target="dzu0w1oi_MooJyhjp6vT-106" edge="1">
          <mxGeometry relative="1" as="geometry" />
        </mxCell>
        <mxCell id="dzu0w1oi_MooJyhjp6vT-102" value="1x Ferrite Mixture Dust" style="rounded=1;whiteSpace=wrap;html=1;" parent="1" vertex="1">
          <mxGeometry x="700" y="680" width="120" height="60" as="geometry" />
        </mxCell>
        <mxCell id="dzu0w1oi_MooJyhjp6vT-104" value="4x Iron Dust" style="rounded=1;whiteSpace=wrap;html=1;" parent="1" vertex="1">
          <mxGeometry x="610" y="760" width="120" height="60" as="geometry" />
        </mxCell>
        <mxCell id="dzu0w1oi_MooJyhjp6vT-105" value="1x Zinc Dust" style="rounded=1;whiteSpace=wrap;html=1;" parent="1" vertex="1">
          <mxGeometry x="610" y="840" width="120" height="60" as="geometry" />
        </mxCell>
        <mxCell id="dzu0w1oi_MooJyhjp6vT-106" value="1x Nickel Dust" style="rounded=1;whiteSpace=wrap;html=1;" parent="1" vertex="1">
          <mxGeometry x="610" y="920" width="120" height="60" as="geometry" />
        </mxCell>
        <mxCell id="dzu0w1oi_MooJyhjp6vT-115" style="edgeStyle=orthogonalEdgeStyle;rounded=1;orthogonalLoop=1;jettySize=auto;html=1;exitX=0;exitY=0.5;exitDx=0;exitDy=0;entryX=0;entryY=0.5;entryDx=0;entryDy=0;" parent="1" source="dzu0w1oi_MooJyhjp6vT-112" target="dzu0w1oi_MooJyhjp6vT-114" edge="1">
          <mxGeometry relative="1" as="geometry" />
        </mxCell>
        <mxCell id="dzu0w1oi_MooJyhjp6vT-118" style="edgeStyle=orthogonalEdgeStyle;rounded=1;orthogonalLoop=1;jettySize=auto;html=1;exitX=0;exitY=0.5;exitDx=0;exitDy=0;entryX=0;entryY=0.5;entryDx=0;entryDy=0;" parent="1" source="dzu0w1oi_MooJyhjp6vT-112" target="dzu0w1oi_MooJyhjp6vT-116" edge="1">
          <mxGeometry relative="1" as="geometry" />
        </mxCell>
        <mxCell id="dzu0w1oi_MooJyhjp6vT-119" style="edgeStyle=orthogonalEdgeStyle;rounded=1;orthogonalLoop=1;jettySize=auto;html=1;exitX=0;exitY=0.5;exitDx=0;exitDy=0;entryX=0;entryY=0.5;entryDx=0;entryDy=0;" parent="1" source="dzu0w1oi_MooJyhjp6vT-112" target="dzu0w1oi_MooJyhjp6vT-117" edge="1">
          <mxGeometry relative="1" as="geometry" />
        </mxCell>
        <mxCell id="dzu0w1oi_MooJyhjp6vT-112" value="1x Soldering Alloy Dust" style="rounded=1;whiteSpace=wrap;html=1;" parent="1" vertex="1">
          <mxGeometry x="1270" y="500" width="120" height="60" as="geometry" />
        </mxCell>
        <mxCell id="dzu0w1oi_MooJyhjp6vT-114" value="6x Tin dust" style="rounded=1;whiteSpace=wrap;html=1;" parent="1" vertex="1">
          <mxGeometry x="1270" y="580" width="120" height="60" as="geometry" />
        </mxCell>
        <mxCell id="dzu0w1oi_MooJyhjp6vT-116" value="3x Lead dust" style="rounded=1;whiteSpace=wrap;html=1;" parent="1" vertex="1">
          <mxGeometry x="1270" y="660" width="120" height="60" as="geometry" />
        </mxCell>
        <mxCell id="dzu0w1oi_MooJyhjp6vT-117" value="1x Antimony Dust" style="rounded=1;whiteSpace=wrap;html=1;" parent="1" vertex="1">
          <mxGeometry x="1270" y="740" width="120" height="60" as="geometry" />
        </mxCell>
        <mxCell id="dzu0w1oi_MooJyhjp6vT-128" style="edgeStyle=orthogonalEdgeStyle;rounded=1;orthogonalLoop=1;jettySize=auto;html=1;exitX=0.5;exitY=1;exitDx=0;exitDy=0;entryX=0.5;entryY=0;entryDx=0;entryDy=0;" parent="1" source="dzu0w1oi_MooJyhjp6vT-120" target="dzu0w1oi_MooJyhjp6vT-124" edge="1">
          <mxGeometry relative="1" as="geometry" />
        </mxCell>
        <mxCell id="dzu0w1oi_MooJyhjp6vT-129" style="edgeStyle=orthogonalEdgeStyle;rounded=1;orthogonalLoop=1;jettySize=auto;html=1;exitX=0.5;exitY=1;exitDx=0;exitDy=0;" parent="1" source="dzu0w1oi_MooJyhjp6vT-120" target="dzu0w1oi_MooJyhjp6vT-125" edge="1">
          <mxGeometry relative="1" as="geometry" />
        </mxCell>
        <mxCell id="dzu0w1oi_MooJyhjp6vT-130" style="edgeStyle=orthogonalEdgeStyle;rounded=1;orthogonalLoop=1;jettySize=auto;html=1;exitX=0.5;exitY=1;exitDx=0;exitDy=0;entryX=0.5;entryY=0;entryDx=0;entryDy=0;" parent="1" source="dzu0w1oi_MooJyhjp6vT-120" target="dzu0w1oi_MooJyhjp6vT-122" edge="1">
          <mxGeometry relative="1" as="geometry" />
        </mxCell>
        <mxCell id="dzu0w1oi_MooJyhjp6vT-131" style="edgeStyle=orthogonalEdgeStyle;rounded=1;orthogonalLoop=1;jettySize=auto;html=1;exitX=0.5;exitY=1;exitDx=0;exitDy=0;" parent="1" source="dzu0w1oi_MooJyhjp6vT-120" target="dzu0w1oi_MooJyhjp6vT-123" edge="1">
          <mxGeometry relative="1" as="geometry" />
        </mxCell>
        <mxCell id="dzu0w1oi_MooJyhjp6vT-132" style="edgeStyle=orthogonalEdgeStyle;rounded=1;orthogonalLoop=1;jettySize=auto;html=1;exitX=0.5;exitY=1;exitDx=0;exitDy=0;entryX=0.5;entryY=0;entryDx=0;entryDy=0;" parent="1" source="dzu0w1oi_MooJyhjp6vT-120" target="dzu0w1oi_MooJyhjp6vT-126" edge="1">
          <mxGeometry relative="1" as="geometry" />
        </mxCell>
        <mxCell id="dzu0w1oi_MooJyhjp6vT-133" style="edgeStyle=orthogonalEdgeStyle;rounded=1;orthogonalLoop=1;jettySize=auto;html=1;exitX=0.5;exitY=1;exitDx=0;exitDy=0;entryX=0.5;entryY=0;entryDx=0;entryDy=0;" parent="1" source="dzu0w1oi_MooJyhjp6vT-120" target="dzu0w1oi_MooJyhjp6vT-127" edge="1">
          <mxGeometry relative="1" as="geometry" />
        </mxCell>
        <mxCell id="dzu0w1oi_MooJyhjp6vT-120" value="Microprocessor" style="rounded=1;whiteSpace=wrap;html=1;" parent="1" vertex="1">
          <mxGeometry x="1750" y="270" width="120" height="60" as="geometry" />
        </mxCell>
        <mxCell id="2Vj1_aHm4KSjHywwhcnb-3" style="edgeStyle=orthogonalEdgeStyle;rounded=1;orthogonalLoop=1;jettySize=auto;html=1;exitX=0.25;exitY=1;exitDx=0;exitDy=0;entryX=0;entryY=0.5;entryDx=0;entryDy=0;" edge="1" parent="1" source="dzu0w1oi_MooJyhjp6vT-122" target="dzu0w1oi_MooJyhjp6vT-136">
          <mxGeometry relative="1" as="geometry" />
        </mxCell>
        <mxCell id="2Vj1_aHm4KSjHywwhcnb-4" style="edgeStyle=orthogonalEdgeStyle;rounded=1;orthogonalLoop=1;jettySize=auto;html=1;exitX=0.25;exitY=1;exitDx=0;exitDy=0;entryX=0;entryY=0.5;entryDx=0;entryDy=0;" edge="1" parent="1" source="dzu0w1oi_MooJyhjp6vT-122" target="dzu0w1oi_MooJyhjp6vT-137">
          <mxGeometry relative="1" as="geometry" />
        </mxCell>
        <mxCell id="2Vj1_aHm4KSjHywwhcnb-5" style="edgeStyle=orthogonalEdgeStyle;rounded=1;orthogonalLoop=1;jettySize=auto;html=1;exitX=0.25;exitY=1;exitDx=0;exitDy=0;entryX=0;entryY=0.5;entryDx=0;entryDy=0;" edge="1" parent="1" source="dzu0w1oi_MooJyhjp6vT-122" target="dzu0w1oi_MooJyhjp6vT-138">
          <mxGeometry relative="1" as="geometry" />
        </mxCell>
        <mxCell id="dzu0w1oi_MooJyhjp6vT-122" value="4x Resistor" style="rounded=1;whiteSpace=wrap;html=1;" parent="1" vertex="1">
          <mxGeometry x="1680" y="380" width="120" height="60" as="geometry" />
        </mxCell>
        <mxCell id="dzu0w1oi_MooJyhjp6vT-123" value="4x Capacitor&lt;div&gt;*&lt;/div&gt;" style="rounded=1;whiteSpace=wrap;html=1;" parent="1" vertex="1">
          <mxGeometry x="1820" y="380" width="120" height="60" as="geometry" />
        </mxCell>
        <mxCell id="dzu0w1oi_MooJyhjp6vT-124" value="1x Plastic Printed Circuit Board&lt;div&gt;*&lt;/div&gt;" style="rounded=1;whiteSpace=wrap;html=1;" parent="1" vertex="1">
          <mxGeometry x="1400" y="380" width="120" height="60" as="geometry" />
        </mxCell>
        <mxCell id="dzu0w1oi_MooJyhjp6vT-135" style="edgeStyle=orthogonalEdgeStyle;rounded=1;orthogonalLoop=1;jettySize=auto;html=1;exitX=0.5;exitY=1;exitDx=0;exitDy=0;" parent="1" source="dzu0w1oi_MooJyhjp6vT-125" target="dzu0w1oi_MooJyhjp6vT-134" edge="1">
          <mxGeometry relative="1" as="geometry" />
        </mxCell>
        <mxCell id="dzu0w1oi_MooJyhjp6vT-125" value="1x CPU Chip" style="rounded=1;whiteSpace=wrap;html=1;" parent="1" vertex="1">
          <mxGeometry x="1540" y="380" width="120" height="60" as="geometry" />
        </mxCell>
        <mxCell id="dzu0w1oi_MooJyhjp6vT-145" style="edgeStyle=orthogonalEdgeStyle;rounded=1;orthogonalLoop=1;jettySize=auto;html=1;exitX=0.5;exitY=1;exitDx=0;exitDy=0;entryX=1;entryY=0.5;entryDx=0;entryDy=0;" parent="1" source="dzu0w1oi_MooJyhjp6vT-126" target="dzu0w1oi_MooJyhjp6vT-142" edge="1">
          <mxGeometry relative="1" as="geometry" />
        </mxCell>
        <mxCell id="dzu0w1oi_MooJyhjp6vT-146" style="edgeStyle=orthogonalEdgeStyle;rounded=1;orthogonalLoop=1;jettySize=auto;html=1;exitX=0.5;exitY=1;exitDx=0;exitDy=0;entryX=1;entryY=0.5;entryDx=0;entryDy=0;" parent="1" source="dzu0w1oi_MooJyhjp6vT-126" target="dzu0w1oi_MooJyhjp6vT-143" edge="1">
          <mxGeometry relative="1" as="geometry" />
        </mxCell>
        <mxCell id="dzu0w1oi_MooJyhjp6vT-147" style="edgeStyle=orthogonalEdgeStyle;rounded=1;orthogonalLoop=1;jettySize=auto;html=1;exitX=0.5;exitY=1;exitDx=0;exitDy=0;entryX=1;entryY=0.5;entryDx=0;entryDy=0;" parent="1" source="dzu0w1oi_MooJyhjp6vT-126" target="dzu0w1oi_MooJyhjp6vT-144" edge="1">
          <mxGeometry relative="1" as="geometry" />
        </mxCell>
        <mxCell id="dzu0w1oi_MooJyhjp6vT-126" value="4x Transistor" style="rounded=1;whiteSpace=wrap;html=1;" parent="1" vertex="1">
          <mxGeometry x="1960" y="380" width="120" height="60" as="geometry" />
        </mxCell>
        <mxCell id="dzu0w1oi_MooJyhjp6vT-127" value="4x Fine Red Alloy Wire&lt;div&gt;*&lt;/div&gt;" style="rounded=1;whiteSpace=wrap;html=1;" parent="1" vertex="1">
          <mxGeometry x="2100" y="380" width="120" height="60" as="geometry" />
        </mxCell>
        <mxCell id="dzu0w1oi_MooJyhjp6vT-134" value="1x CPU Waffer" style="rounded=1;whiteSpace=wrap;html=1;" parent="1" vertex="1">
          <mxGeometry x="1540" y="480" width="120" height="60" as="geometry" />
        </mxCell>
        <mxCell id="dzu0w1oi_MooJyhjp6vT-136" value="1x Carbon Dust" style="rounded=1;whiteSpace=wrap;html=1;" parent="1" vertex="1">
          <mxGeometry x="1740" y="480" width="120" height="60" as="geometry" />
        </mxCell>
        <mxCell id="dzu0w1oi_MooJyhjp6vT-137" value="4x Fine Tantalum Wire" style="rounded=1;whiteSpace=wrap;html=1;" parent="1" vertex="1">
          <mxGeometry x="1740" y="560" width="120" height="60" as="geometry" />
        </mxCell>
        <mxCell id="dzu0w1oi_MooJyhjp6vT-138" value="288mb Polyethylene" style="rounded=1;whiteSpace=wrap;html=1;" parent="1" vertex="1">
          <mxGeometry x="1740" y="640" width="120" height="60" as="geometry" />
        </mxCell>
        <mxCell id="dzu0w1oi_MooJyhjp6vT-142" value="1x Gallium Foil" style="rounded=1;whiteSpace=wrap;html=1;" parent="1" vertex="1">
          <mxGeometry x="1880" y="480" width="120" height="60" as="geometry" />
        </mxCell>
        <mxCell id="dzu0w1oi_MooJyhjp6vT-143" value="8x Fine Tantalum Wire" style="rounded=1;whiteSpace=wrap;html=1;" parent="1" vertex="1">
          <mxGeometry x="1880" y="560" width="120" height="60" as="geometry" />
        </mxCell>
        <mxCell id="dzu0w1oi_MooJyhjp6vT-144" value="144mb Polyethylene" style="rounded=1;whiteSpace=wrap;html=1;" parent="1" vertex="1">
          <mxGeometry x="1880" y="640" width="120" height="60" as="geometry" />
        </mxCell>
      </root>
    </mxGraphModel>
  </diagram>
</mxfile>
